<?xml version="1.0" encoding="utf-8"?>
<!-- Generator: Adobe Illustrator 25.0.0, SVG Export Plug-In . SVG Version: 6.00 Build 0)  -->
<svg version="1.1" xmlns="http://www.w3.org/2000/svg" xmlns:xlink="http://www.w3.org/1999/xlink" x="0px" y="0px"
	 viewBox="0 0 70 70" style="enable-background:new 0 0 70 70;" xml:space="preserve">
<style type="text/css">
	.st0{display:none;}
	.st1{display:inline;fill:#0B0D40;}
	.st2{display:inline;}
	.st3{fill:#FFFFFF;}
	.st4{fill:#0B0D40;}
</style>
<g id="_x30_1">
</g>
<g id="_x30_2">
</g>
<g id="_x30_3">
</g>
<g id="_x30_4">
	<g>
		<path class="st4" d="M62.4,67.85H7.6c-3.01,0-5.45-2.44-5.45-5.45V7.6c0-3.01,2.44-5.45,5.45-5.45H62.4
			c3.01,0,5.45,2.44,5.45,5.45V62.4C67.85,65.41,65.41,67.85,62.4,67.85z"/>
		<g>
			<path class="st3" d="M37.1,59.68c-7.12,0-13.01-2.36-17.68-7.07C14.75,47.9,12.42,42.03,12.42,35c0-7.03,2.33-12.9,6.99-17.61
				c4.67-4.71,10.56-7.06,17.68-7.06c4.28,0,8.25,1.01,11.9,3.04c3.65,2.03,6.51,4.76,8.59,8.18L47.1,27.56
				c-0.9-1.67-2.24-2.98-4.02-3.96c-1.78-0.97-3.78-1.45-5.98-1.45c-3.79,0-6.84,1.18-9.16,3.55c-2.32,2.37-3.48,5.47-3.48,9.29
				c0,3.83,1.16,6.93,3.48,9.3c2.32,2.36,5.37,3.55,9.16,3.55c2.21,0,4.2-0.48,5.98-1.45c1.78-0.97,3.12-2.31,4.02-4.02l10.48,6.08
				c-2.07,3.47-4.92,6.21-8.55,8.21C45.4,58.67,41.42,59.68,37.1,59.68z"/>
		</g>
	</g>
</g>
</svg>
