<?xml version="1.0" standalone="no"?>
<!DOCTYPE svg PUBLIC "-//W3C//DTD SVG 20010904//EN"
 "http://www.w3.org/TR/2001/REC-SVG-20010904/DTD/svg10.dtd">
<svg version="1.0" xmlns="http://www.w3.org/2000/svg"
 width="400.000000pt" height="400.000000pt" viewBox="0 0 400.000000 400.000000"
 preserveAspectRatio="xMidYMid meet">
<metadata>
Created by potrace 1.14, written by Peter Selinger 2001-2017
</metadata>
<g transform="translate(0.000000,400.000000) scale(0.100000,-0.100000)"
fill="#000000" stroke="none">
<path d="M344 3865 c-46 -14 -110 -53 -140 -86 -12 -13 -35 -49 -50 -79 l-29
-55 0 -1645 0 -1645 28 -57 c31 -64 89 -119 157 -151 l45 -21 1645 -1 1645 0
48 23 c65 31 140 108 163 168 18 47 19 104 19 1689 l0 1640 -30 59 c-33 65
-87 118 -155 150 l-45 21 -1631 1 c-1217 1 -1640 -2 -1670 -11z"/>
</g>
</svg>
